<svg id="visual" viewBox="0 0 900 600" width="900" height="600" xmlns="http://www.w3.org/2000/svg" xmlns:xlink="http://www.w3.org/1999/xlink" version="1.1"><rect x="0" y="0" width="900" height="600" fill="#001220"></rect><defs><linearGradient id="grad1_0" x1="33.3%" y1="0%" x2="100%" y2="100%"><stop offset="20%" stop-color="#001220" stop-opacity="1"></stop><stop offset="80%" stop-color="#001220" stop-opacity="1"></stop></linearGradient></defs><defs><linearGradient id="grad2_0" x1="0%" y1="0%" x2="66.7%" y2="100%"><stop offset="20%" stop-color="#001220" stop-opacity="1"></stop><stop offset="80%" stop-color="#001220" stop-opacity="1"></stop></linearGradient></defs><g transform="translate(900, 0)"><path d="M0 486.7C-66.9 482.7 -133.8 478.6 -186.3 449.7C-238.7 420.8 -276.8 367.2 -321 321C-365.3 274.9 -415.7 236.3 -444.4 184.1C-473 131.8 -479.9 65.9 -486.7 0L0 0Z" fill="#FBAE3C"></path></g><g transform="translate(0, 600)"><path d="M0 -486.7C47.9 -442.2 95.9 -397.7 157.7 -380.6C219.5 -363.6 295.1 -374 344.2 -344.2C393.3 -314.4 415.8 -244.3 435.1 -180.2C454.5 -116.2 470.6 -58.1 486.7 0L0 0Z" fill="#FBAE3C"></path></g></svg>